<svg width="42" height="39" viewBox="0 0 42 39" fill="none" xmlns="http://www.w3.org/2000/svg">
<path d="M39 5.16589H42V17.1659H39V5.16589ZM31.5 0.665894H34.5V17.1659H31.5V0.665894ZM24 8.16589H27V17.1659H24V8.16589ZM21 38.1659H18V29.1659C17.9988 27.9728 17.5243 26.8289 16.6807 25.9852C15.837 25.1416 14.6931 24.6671 13.5 24.6659H7.5C6.30689 24.6671 5.16299 25.1416 4.31933 25.9852C3.47568 26.8289 3.00119 27.9728 3 29.1659V38.1659H0V29.1659C0.00238179 27.1775 0.793323 25.2712 2.19933 23.8652C3.60534 22.4592 5.51161 21.6683 7.5 21.6659H13.5C15.4884 21.6683 17.3947 22.4592 18.8007 23.8652C20.2067 25.2712 20.9976 27.1775 21 29.1659V38.1659ZM10.5 6.66589C11.39 6.66589 12.26 6.92981 13.0001 7.42428C13.7401 7.91875 14.3169 8.62155 14.6575 9.44382C14.9981 10.2661 15.0872 11.1709 14.9135 12.0438C14.7399 12.9167 14.3113 13.7185 13.682 14.3479C13.0526 14.9772 12.2508 15.4058 11.3779 15.5794C10.505 15.7531 9.60019 15.6639 8.77792 15.3234C7.95566 14.9828 7.25285 14.406 6.75839 13.666C6.26392 12.9259 6 12.0559 6 11.1659C6 9.97242 6.47411 8.82783 7.31802 7.98391C8.16193 7.14 9.30653 6.66589 10.5 6.66589ZM10.5 3.66589C9.01664 3.66589 7.56659 4.10576 6.33322 4.92987C5.09985 5.75398 4.13856 6.92532 3.5709 8.29577C3.00325 9.66621 2.85472 11.1742 3.14411 12.6291C3.4335 14.0839 4.14781 15.4203 5.1967 16.4692C6.24559 17.5181 7.58197 18.2324 9.03682 18.5218C10.4917 18.8112 11.9997 18.6626 13.3701 18.095C14.7406 17.5273 15.9119 16.566 16.736 15.3327C17.5601 14.0993 18 12.6493 18 11.1659C18 10.181 17.806 9.20571 17.4291 8.29577C17.0522 7.38583 16.4997 6.55903 15.8033 5.86259C15.1069 5.16615 14.2801 4.61371 13.3701 4.2368C12.4602 3.85989 11.4849 3.66589 10.5 3.66589Z" fill="#F9BF29"/>
</svg>
