<svg width="43" height="40" viewBox="0 0 43 40" fill="none" xmlns="http://www.w3.org/2000/svg">
<path d="M28.4011 26.2252C28.4011 24.3121 22.9753 22.7627 16.2823 22.7627M28.4011 26.2252C28.4011 28.1382 22.9753 29.6877 16.2823 29.6877C9.5893 29.6877 4.16356 28.1382 4.16356 26.2252M28.4011 26.2252V34.7724C28.4011 36.7442 22.9753 38.3439 16.2823 38.3439C9.5893 38.3439 4.16356 36.746 4.16356 34.7724V26.2252M28.4011 26.2252C35.0214 26.2252 40.5198 24.5164 40.5198 22.7627V5.45017M16.2823 22.7627C9.5893 22.7627 4.16356 24.3121 4.16356 26.2252M16.2823 22.7627C8.63365 22.7627 2.43231 21.0539 2.43231 19.3002V10.6439M16.2823 7.18142C8.63365 7.18142 2.43231 8.73089 2.43231 10.6439M2.43231 10.6439C2.43231 12.557 8.63365 14.1064 16.2823 14.1064C16.2823 15.8602 21.9141 17.5689 28.5344 17.5689C35.1547 17.5689 40.5198 15.8602 40.5198 14.1064M40.5198 5.45017C40.5198 3.53714 35.1529 1.98767 28.5344 1.98767C21.9158 1.98767 16.5489 3.53714 16.5489 5.45017M40.5198 5.45017C40.5198 7.3632 35.1529 8.91267 28.5344 8.91267C21.9158 8.91267 16.5489 7.3632 16.5489 5.45017M16.5489 5.45017V23.0501" stroke="#F9BF29" stroke-width="3"/>
</svg>
